<svg width="543" height="393" viewBox="0 0 543 393" fill="none" xmlns="http://www.w3.org/2000/svg">
    <g opacity="0.8" filter="url(#filter0_d)">
        <rect x="12" width="519" height="369" rx="5" fill="white"/>
    </g>
    <path d="M273.5 297.584C223.5 297.584 201 344.584 196 367.584H531V180.084C477.5 179.084 414.5 186.584 390.5 223.084C366.5 259.584 336 297.584 273.5 297.584Z" fill="url(#paint0_linear)"/>
    <path d="M212.007 281.052C150.067 281.052 122.194 339.431 116 368H531V104.5C464.724 103.258 386.679 143.178 356.948 188.515C327.216 233.852 289.433 281.052 212.007 281.052Z" fill="url(#paint1_linear)"/>
    <path d="M228.149 320.812C169.343 320.812 142.881 351.881 137 367.084H531V243.14C468.078 242.479 393.982 247.437 365.755 271.565C337.528 295.693 301.657 320.812 228.149 320.812Z" fill="url(#paint2_linear)"/>
    <defs>
        <filter id="filter0_d" x="0" y="0" width="543" height="393" filterUnits="userSpaceOnUse" color-interpolation-filters="sRGB">
            <feFlood flood-opacity="0" result="BackgroundImageFix"/>
            <feColorMatrix in="SourceAlpha" type="matrix" values="0 0 0 0 0 0 0 0 0 0 0 0 0 0 0 0 0 0 127 0"/>
            <feOffset dy="12"/>
            <feGaussianBlur stdDeviation="6"/>
            <feColorMatrix type="matrix" values="0 0 0 0 0 0 0 0 0 0 0 0 0 0 0 0 0 0 0.12 0"/>
            <feBlend mode="normal" in2="BackgroundImageFix" result="effect1_dropShadow"/>
            <feBlend mode="normal" in="SourceGraphic" in2="effect1_dropShadow" result="shape"/>
        </filter>
        <linearGradient id="paint0_linear" x1="363.5" y1="180" x2="363.5" y2="367.584" gradientUnits="userSpaceOnUse">
            <stop stop-color="#50B4FD"/>
            <stop offset="1" stop-color="#C4C4C4" stop-opacity="0"/>
        </linearGradient>
        <linearGradient id="paint1_linear" x1="323.5" y1="135" x2="323.5" y2="368" gradientUnits="userSpaceOnUse">
            <stop stop-color="#C0F7FF"/>
            <stop offset="1" stop-color="#C4C4C4" stop-opacity="0"/>
        </linearGradient>
        <linearGradient id="paint2_linear" x1="334" y1="243.084" x2="334" y2="367.084" gradientUnits="userSpaceOnUse">
            <stop stop-color="#5061FD"/>
            <stop offset="1" stop-color="#C4C4C4" stop-opacity="0"/>
        </linearGradient>
    </defs>
</svg>
